<svg width="19" height="21" viewBox="0 0 19 21" fill="none" xmlns="http://www.w3.org/2000/svg">
<path fill-rule="evenodd" clip-rule="evenodd" d="M2.84214 9.84465C2.53597 9.88843 2.29999 10.1651 2.29999 10.4998C2.29999 10.865 2.58083 11.161 2.92726 11.161H13.9533L9.97025 15.3424L9.90937 15.4165C9.72666 15.6749 9.74618 16.0423 9.96842 16.2775C10.2129 16.5362 10.61 16.5371 10.8555 16.2794L15.9066 10.9773C15.9367 10.9469 15.9639 10.9134 15.9878 10.8773C16.1587 10.6191 16.1346 10.2609 15.9155 10.0309L10.8555 4.72031L10.785 4.65645C10.539 4.46496 10.1906 4.48709 9.96838 4.72233C9.72394 4.98109 9.7248 5.39972 9.97029 5.65737L13.9543 9.83862H2.92726L2.84214 9.84465Z" fill="white"/>
</svg>
