<svg width="20" height="25" viewBox="0 0 20 25" fill="none" xmlns="http://www.w3.org/2000/svg">
<g opacity="0.4">
<path d="M3.93567 21.6249C3.92484 21.6249 3.91484 21.6249 3.90317 21.6239C3.64067 21.608 3.38317 21.5403 3.13817 21.4218C1.93234 20.8366 1.35067 19.1912 1.83984 17.7519L7.94067 4.98528C8.15067 4.53139 8.46901 4.15116 8.85734 3.89436C9.99484 3.14186 11.4332 3.63656 12.0623 4.99424L18.1232 17.6633C18.2582 18.0426 18.3157 18.3511 18.3298 18.6657C18.3623 19.4182 18.1473 20.1398 17.7257 20.6982C17.304 21.2566 16.7248 21.5861 16.0957 21.6239L3.99567 21.6249H3.93567Z" fill="white"/>
<path d="M3.93567 21.6249C3.92484 21.6249 3.91484 21.6249 3.90317 21.6239C3.64067 21.608 3.38317 21.5403 3.13817 21.4218C1.93234 20.8366 1.35067 19.1912 1.83984 17.7519L7.94067 4.98528C8.15067 4.53139 8.46901 4.15116 8.85734 3.89436C9.99484 3.14186 11.4332 3.63656 12.0623 4.99424L18.1232 17.6633C18.2582 18.0426 18.3157 18.3511 18.3298 18.6657C18.3623 19.4182 18.1473 20.1398 17.7257 20.6982C17.304 21.2566 16.7248 21.5861 16.0957 21.6239L3.99567 21.6249H3.93567Z" fill="url(#paint0_linear_2_419)"/>
</g>
<path fill-rule="evenodd" clip-rule="evenodd" d="M9.27051 10.53C9.27051 10.0502 9.59801 9.65906 9.99967 9.65906C10.4013 9.65906 10.7288 10.0502 10.7288 10.53V13.3449C10.7288 13.8257 10.4013 14.2159 9.99967 14.2159C9.59801 14.2159 9.27051 13.8257 9.27051 13.3449V10.53ZM9.27051 16.7502C9.27051 16.2674 9.59801 15.8743 9.99967 15.8743C10.4013 15.8743 10.7288 16.2624 10.7288 16.7392C10.7288 17.2299 10.4013 17.6211 9.99967 17.6211C9.59801 17.6211 9.27051 17.2299 9.27051 16.7502Z" fill="white"/>
<path fill-rule="evenodd" clip-rule="evenodd" d="M9.27051 10.53C9.27051 10.0502 9.59801 9.65906 9.99967 9.65906C10.4013 9.65906 10.7288 10.0502 10.7288 10.53V13.3449C10.7288 13.8257 10.4013 14.2159 9.99967 14.2159C9.59801 14.2159 9.27051 13.8257 9.27051 13.3449V10.53ZM9.27051 16.7502C9.27051 16.2674 9.59801 15.8743 9.99967 15.8743C10.4013 15.8743 10.7288 16.2624 10.7288 16.7392C10.7288 17.2299 10.4013 17.6211 9.99967 17.6211C9.59801 17.6211 9.27051 17.2299 9.27051 16.7502Z" fill="url(#paint1_linear_2_419)"/>
<defs>
<linearGradient id="paint0_linear_2_419" x1="1.6665" y1="3.54248" x2="21.494" y2="8.21687" gradientUnits="userSpaceOnUse">
<stop stop-color="#FF7C77"/>
<stop offset="1" stop-color="#FF534D"/>
</linearGradient>
<linearGradient id="paint1_linear_2_419" x1="9.27051" y1="9.65906" x2="11.0978" y2="9.74467" gradientUnits="userSpaceOnUse">
<stop stop-color="#FF7C77"/>
<stop offset="1" stop-color="#FF534D"/>
</linearGradient>
</defs>
</svg>
