<svg width="24" height="24" viewBox="0 0 24 24" fill="none" xmlns="http://www.w3.org/2000/svg">
<path d="M17.3795 15.1412C16.7714 15.991 15.8958 16.5911 14.9061 16.8363C15.3128 17.3773 15.8031 17.9889 15.8075 17.9949C17.4619 18.0314 19.0283 17.2206 20 15.825C19.9502 12.9317 19.2759 10.0873 18.027 7.50275C16.9275 6.60375 15.5892 6.07909 14.1936 6H14.1778L13.9859 6.22842C15.2325 6.57728 16.3949 7.19468 17.3982 8.04073C16.1216 7.3095 14.7207 6.84402 13.2735 6.67022C12.3537 6.56378 11.4249 6.57336 10.5073 6.69878C10.4424 6.70011 10.3778 6.70715 10.314 6.71981H10.2737C9.19826 6.84883 8.14899 7.15309 7.16423 7.62146C6.67099 7.85739 6.36813 8.02871 6.35515 8.03472C6.34217 8.04073 6.35515 8.03472 6.35515 8.0242C7.41934 7.15207 8.64708 6.52191 9.95926 6.17432L9.81503 6.00301H9.80638C8.41088 6.08229 7.07255 6.60693 5.97296 7.50575C4.71953 10.0886 4.04494 12.9341 4 15.828C4.95956 17.2328 6.52821 18.0467 8.18244 17.9979C8.18244 17.9979 8.69876 17.3427 9.10114 16.8123C8.13629 16.5596 7.28613 15.9644 6.69695 15.1292C6.70705 15.1367 6.84983 15.2374 7.08058 15.3696C7.09608 15.3886 7.11525 15.404 7.13683 15.4147C7.1551 15.4279 7.1744 15.4394 7.19452 15.4493C7.21732 15.4601 7.23906 15.4731 7.25942 15.4883C7.58119 15.6732 7.91519 15.8338 8.25888 15.9692C8.91231 16.2388 9.58821 16.4451 10.278 16.5853C10.8819 16.704 11.495 16.7643 12.1096 16.7657C12.6858 16.7656 13.2608 16.7103 13.8273 16.6004C14.5095 16.4755 15.1758 16.2698 15.8132 15.9873C16.3638 15.7666 16.8891 15.4828 17.3795 15.1412ZM14.4402 14.4995C13.8128 14.5565 13.2161 14.2064 12.9376 13.6177C12.6592 13.029 12.7561 12.3226 13.1816 11.8388C13.6072 11.355 14.2742 11.1931 14.8612 11.431C15.4482 11.6689 15.8349 12.2579 15.8349 12.9141C15.8666 13.7525 15.2432 14.4605 14.4388 14.4995H14.4402ZM9.43862 14.4995C8.6495 14.4279 8.04392 13.7395 8.04392 12.9141C8.04392 12.0888 8.6495 11.4004 9.43862 11.3287C9.80212 11.3299 10.1497 11.4844 10.402 11.757C10.6884 12.0667 10.8441 12.4827 10.8347 12.9126C10.8681 13.7525 10.2445 14.4622 9.43862 14.4995Z" fill="#F0827D"/>
</svg>
