<svg width="24" height="18" viewBox="0 0 24 18" fill="none" xmlns="http://www.w3.org/2000/svg">
<path d="M21.0275 2.21091C19.3761 0.814545 17.3945 0.116364 15.3028 0L14.9725 0.349091C16.844 0.814546 18.4954 1.74545 20.0367 3.02545C18.1651 1.97818 16.0734 1.28 13.8716 1.04727C13.211 0.930909 12.6606 0.930909 12 0.930909C11.3394 0.930909 10.789 0.930909 10.1284 1.04727C7.92661 1.28 5.83486 1.97818 3.9633 3.02545C5.50459 1.74545 7.15596 0.814546 9.02752 0.349091L8.69725 0C6.6055 0.116364 4.62385 0.814545 2.97248 2.21091C1.10092 5.93455 0.110092 10.1236 0 14.4291C1.65138 16.2909 3.9633 17.4545 6.38532 17.4545C6.38532 17.4545 7.15596 16.5236 7.70642 15.7091C6.27523 15.36 4.95413 14.5455 4.07339 13.2655C4.84404 13.7309 5.61468 14.1964 6.38532 14.5455C7.37615 15.0109 8.36697 15.2436 9.3578 15.4764C10.2385 15.5927 11.1193 15.7091 12 15.7091C12.8807 15.7091 13.7615 15.5927 14.6422 15.4764C15.633 15.2436 16.6239 15.0109 17.6147 14.5455C18.3853 14.1964 19.156 13.7309 19.9266 13.2655C19.0459 14.5455 17.7248 15.36 16.2936 15.7091C16.844 16.5236 17.6147 17.4545 17.6147 17.4545C20.0367 17.4545 22.3486 16.2909 24 14.4291C23.8899 10.1236 22.8991 5.93455 21.0275 2.21091ZM8.36697 12.3345C7.26606 12.3345 6.27523 11.2873 6.27523 10.0073C6.27523 8.72727 7.26606 7.68 8.36697 7.68C9.46789 7.68 10.4587 8.72727 10.4587 10.0073C10.4587 11.2873 9.46789 12.3345 8.36697 12.3345ZM15.633 12.3345C14.5321 12.3345 13.5413 11.2873 13.5413 10.0073C13.5413 8.72727 14.5321 7.68 15.633 7.68C16.7339 7.68 17.7248 8.72727 17.7248 10.0073C17.7248 11.2873 16.7339 12.3345 15.633 12.3345Z" fill="#7A7A7A"/>
</svg>
