<svg width="20" height="20" viewBox="0 0 20 20" fill="none" xmlns="http://www.w3.org/2000/svg">
<path d="M15.0961 0.120184C13.8431 0.18028 12.6381 0.727155 11.7067 1.65865L8.05281 5.31249C8.62673 4.73557 10.7571 5.1322 11.274 5.64903L13.4855 3.43749C13.9753 2.94771 14.5883 2.64723 15.2163 2.62018C15.643 2.59915 16.2469 2.68929 16.7788 3.22115C17.2746 3.71694 17.3797 4.29386 17.3797 4.68749C17.3797 5.34554 17.0793 6.00059 16.5624 6.51441L12.7163 10.3846C11.7487 11.3522 10.2764 11.4303 9.423 10.5769C8.93622 10.0901 8.13394 10.0871 7.64416 10.5769C7.15437 11.0667 7.15437 11.866 7.64416 12.3558C8.52156 13.2332 9.67541 13.6779 10.8653 13.6779C12.1514 13.6779 13.4645 13.152 14.4711 12.1394L18.3413 8.29326C19.3238 7.31369 19.8797 6.0036 19.8797 4.68749C19.8797 3.46453 19.417 2.30167 18.5576 1.4423C17.6381 0.522828 16.4032 0.0600874 15.0961 0.120184ZM9.13454 6.32211C7.84848 6.32211 6.51435 6.85095 5.50473 7.86057L1.65858 11.7067C0.676006 12.6863 0.120117 13.9964 0.120117 15.3125C0.120117 16.5354 0.582858 17.6983 1.44223 18.5577C2.3617 19.4772 3.59668 19.9399 4.90377 19.8798C6.15678 19.8197 7.3617 19.2728 8.29319 18.3413L11.947 14.6875C11.3701 15.2644 9.24271 14.8678 8.72589 14.351L6.51435 16.5625C6.02456 17.0523 5.41158 17.3498 4.78358 17.3798C4.3569 17.4008 3.75293 17.3107 3.22108 16.7788C2.72529 16.283 2.62012 15.7031 2.62012 15.3125C2.62012 14.6544 2.9206 13.9994 3.43742 13.4856L7.28358 9.61538C8.25113 8.64783 9.72348 8.57271 10.5768 9.42307C11.0666 9.91285 11.8689 9.91285 12.3557 9.42307C12.8455 8.93328 12.8455 8.13401 12.3557 7.64422C11.4783 6.76682 10.3214 6.32211 9.13454 6.32211Z" fill="#7A7A7A"/>
</svg>
