<svg width="22" height="18" viewBox="0 0 22 18" fill="none" xmlns="http://www.w3.org/2000/svg">
<path d="M6.90544 18C4.36365 18 1.99428 17.2636 0 15.9931C1.69321 16.1022 4.68134 15.8409 6.53995 14.0751C3.74399 13.9473 2.48306 11.8114 2.31859 10.8986C2.55616 10.9899 3.68917 11.0994 4.32877 10.8438C1.11249 10.0406 0.619086 7.22921 0.728732 6.3712C1.33178 6.79108 2.35514 6.93712 2.75718 6.90061C-0.239806 4.76471 0.838377 1.55172 1.36833 0.858012C3.51908 3.82591 6.74237 5.49279 10.73 5.58551C10.6548 5.25706 10.6151 4.91511 10.6151 4.56389C10.6151 2.04333 12.6605 0 15.1837 0C16.502 0 17.6899 0.557807 18.5238 1.45005C19.4047 1.24443 20.7305 0.763097 21.3787 0.346856C21.052 1.51521 20.0349 2.48986 19.4196 2.8511C19.4247 2.86339 19.4146 2.83876 19.4196 2.8511C19.9601 2.76968 21.4223 2.48977 22 2.09939C21.7143 2.75576 20.636 3.84709 19.7511 4.45807C19.9157 11.6907 14.3601 18 6.90544 18Z" fill="#7A7A7A"/>
</svg>
